# xmcd
#
# Track frame offsets:
#	150
#	19257
#	42777
#	66386
#
# Disc length: 1137 seconds
#
# Revision: 1
# Processed by: cddbd v1.5PL3 Copyright (c) Steve Scherf et al.
# Submitted via: CDex 1.50Beta5
#
DISCID=30046f04
DTITLE=松田聖子 - Call me
DYEAR=2003
DGENRE=Pop
TTITLE0=Call me
TTITLE1=Call me〜DJ TAKI-SHIT EXTRA FUNK MIX〜
TTITLE2=This is the place 2003
TTITLE3=Call me(Backing Track)
EXTD=
EXTT0=
EXTT1=
EXTT2=
EXTT3=
PLAYORDER=
